<svg xmlns="http://www.w3.org/2000/svg" xmlns:xlink="http://www.w3.org/1999/xlink" xmlns:lucid="lucid" width="1760" height="867"><g transform="translate(0 -40)" lucid:page-tab-id="0_0"><path d="M0 0h1760v1360H0z" fill="#fff"/><path d="M611.76 108c0-4.42 3.58-8 8-8h520.78c4.42 0 8 3.58 8 8v28.14c0 4.42-3.58 8-8 8H619.76c-4.42 0-8-3.58-8-8z" stroke="#000" stroke-opacity="0" stroke-width="2" fill="#fff" fill-opacity="0"/><use xlink:href="#a" transform="matrix(1,0,0,1,615.759576706394,104) translate(202.40012345679014 23.657777777777778)"/><use xlink:href="#b" transform="matrix(1,0,0,1,615.759576706394,104) translate(278.0075308641975 23.657777777777778)"/><path d="M619.27 142.7h521.76M619.3 142.7h-4.03M1141 142.7h4.03" stroke="#b2b2b2" stroke-width="2" fill="none"/><path d="M140 240h416.45v200H140z" fill="#fff"/><path d="M140 240h416.45v40H140z" fill="#ccc"/><path d="M140 240h416.45v200H140zM140 280h416.45M184 280v160M308.8 280v160" stroke="#000" fill="none"/><use xlink:href="#c" transform="matrix(1,0,0,1,150,240) translate(130.575 23.6)"/><use xlink:href="#d" transform="matrix(1,0,0,1,145,282.5) translate(5 17.1)"/><use xlink:href="#e" transform="matrix(1,0,0,1,189,282.5) translate(0 17.1)"/><use xlink:href="#f" transform="matrix(1,0,0,1,313.80000000000007,282.5) translate(0 17.1)"/><use xlink:href="#g" transform="matrix(1,0,0,1,189,314.5) translate(0 17.1)"/><use xlink:href="#h" transform="matrix(1,0,0,1,313.80000000000007,314.5) translate(0 17.1)"/><use xlink:href="#i" transform="matrix(1,0,0,1,313.80000000000007,314.5) translate(79.9 17.1)"/><use xlink:href="#j" transform="matrix(1,0,0,1,189,346.5) translate(0 17.1)"/><use xlink:href="#k" transform="matrix(1,0,0,1,313.80000000000007,346.5) translate(0 17.1)"/><use xlink:href="#l" transform="matrix(1,0,0,1,313.80000000000007,346.5) translate(87.85 17.1)"/><use xlink:href="#m" transform="matrix(1,0,0,1,313.80000000000007,346.5) translate(149.75 17.1)"/><use xlink:href="#n" transform="matrix(1,0,0,1,313.80000000000007,346.5) translate(188.65 17.1)"/><use xlink:href="#o" transform="matrix(1,0,0,1,145,378.5) translate(5.524999999999999 17.1)"/><use xlink:href="#p" transform="matrix(1,0,0,1,189,378.5) translate(0 17.1)"/><use xlink:href="#f" transform="matrix(1,0,0,1,313.80000000000007,378.5) translate(0 17.1)"/><use xlink:href="#o" transform="matrix(1,0,0,1,145,410.5) translate(5.524999999999999 17.1)"/><use xlink:href="#q" transform="matrix(1,0,0,1,189,410.5) translate(0 17.1)"/><use xlink:href="#f" transform="matrix(1,0,0,1,313.80000000000007,410.5) translate(0 17.1)"/><path d="M1327.2 288h355.55v104H1327.2z" fill="#fff"/><path d="M1327.2 288h355.55v40H1327.2z" fill="#ccc"/><path d="M1327.2 288h355.55v104H1327.2zM1327.2 328h355.55M1399.15 328v64M1607.85 328v64" stroke="#000" fill="none"/><use xlink:href="#r" transform="matrix(1,0,0,1,1337.2,288) translate(140.575 23.6)"/><use xlink:href="#s" transform="matrix(1,0,0,1,1332.2,330.5) translate(5.024999999999999 17.1)"/><use xlink:href="#t" transform="matrix(1,0,0,1,1404.15,330.5) translate(0 17.1)"/><use xlink:href="#f" transform="matrix(1,0,0,1,1612.85,330.5) translate(0 17.1)"/><use xlink:href="#s" transform="matrix(1,0,0,1,1332.2,362.5) translate(5.024999999999999 17.1)"/><use xlink:href="#u" transform="matrix(1,0,0,1,1404.15,362.5) translate(0 17.1)"/><use xlink:href="#f" transform="matrix(1,0,0,1,1612.85,362.5) translate(0 17.1)"/><path d="M180 680h263.75v104H180z" fill="#fff"/><path d="M180 680h263.75v40H180z" fill="#ccc"/><path d="M180 680h263.75v104H180zM180 720h263.75M251.95 720v64M368.85 720v64" stroke="#000" fill="none"/><use xlink:href="#v" transform="matrix(1,0,0,1,190,680) translate(57.575 23.6)"/><use xlink:href="#s" transform="matrix(1,0,0,1,185,722.5) translate(5.024999999999999 17.1)"/><use xlink:href="#w" transform="matrix(1,0,0,1,256.95,722.5) translate(0 17.1)"/><use xlink:href="#f" transform="matrix(1,0,0,1,373.85,722.5) translate(0 17.1)"/><use xlink:href="#s" transform="matrix(1,0,0,1,185,754.5) translate(5.024999999999999 17.1)"/><use xlink:href="#x" transform="matrix(1,0,0,1,256.95,754.5) translate(0 17.1)"/><use xlink:href="#f" transform="matrix(1,0,0,1,373.85,754.5) translate(0 17.1)"/><path d="M1300 680h394.5v168H1300z" fill="#fff"/><path d="M1300 680h394.5v40H1300z" fill="#ccc"/><path d="M1300 680h394.5v168H1300zM1300 720h394.5M1344 720v128M1446.85 720v128" stroke="#000" fill="none"/><use xlink:href="#y" transform="matrix(1,0,0,1,1310,680) translate(146.525 23.6)"/><use xlink:href="#d" transform="matrix(1,0,0,1,1305,722.5) translate(5 17.1)"/><use xlink:href="#e" transform="matrix(1,0,0,1,1349,722.5) translate(0 17.1)"/><use xlink:href="#f" transform="matrix(1,0,0,1,1451.85,722.5) translate(0 17.1)"/><use xlink:href="#g" transform="matrix(1,0,0,1,1349,754.5) translate(0 17.1)"/><use xlink:href="#h" transform="matrix(1,0,0,1,1451.85,754.5) translate(0 17.1)"/><use xlink:href="#i" transform="matrix(1,0,0,1,1451.85,754.5) translate(79.9 17.1)"/><use xlink:href="#j" transform="matrix(1,0,0,1,1349,786.5) translate(0 17.1)"/><use xlink:href="#k" transform="matrix(1,0,0,1,1451.85,786.5) translate(0 17.1)"/><use xlink:href="#l" transform="matrix(1,0,0,1,1451.85,786.5) translate(87.85 17.1)"/><use xlink:href="#m" transform="matrix(1,0,0,1,1451.85,786.5) translate(149.75 17.1)"/><use xlink:href="#n" transform="matrix(1,0,0,1,1451.85,786.5) translate(188.65 17.1)"/><use xlink:href="#o" transform="matrix(1,0,0,1,1305,818.5) translate(5.524999999999999 17.1)"/><use xlink:href="#x" transform="matrix(1,0,0,1,1349,818.5) translate(0 17.1)"/><use xlink:href="#f" transform="matrix(1,0,0,1,1451.85,818.5) translate(0 17.1)"/><path d="M1279.5 735.93H871.87v.1h-408.2" stroke="#000" fill="none"/><path fill="#fff"/><path d="M1280 745.93h-1v-20h1z"/><path fill="#fff"/><path d="M1299.5 736.43h-20v-1h20z"/><path d="M444.47 726.02l20 10-20 10z" fill="#fff"/><path d="M465.6 736.02l-20.9 10.44-.45-.9 19.1-9.54-19.1-9.56.45-.9z"/><path fill="#fff"/><path d="M464.47 736.52h-20v-1h20z"/><path d="M800 260h283.65v319H800z" fill="#fff"/><path d="M800 260h283.65v40H800z" fill="#ccc"/><path d="M800 260h283.65v319H800zM800 300h283.65M844 300v279M1008.75 300v279" stroke="#000" fill="none"/><use xlink:href="#z" transform="matrix(1,0,0,1,810,260) translate(110.2962962962963 23.555555555555557)"/><use xlink:href="#A" transform="matrix(1,0,0,1,805,302.5) translate(5.148148148148147 16.555555555555557)"/><use xlink:href="#B" transform="matrix(1,0,0,1,849,302.5) translate(0 16.555555555555557)"/><use xlink:href="#C" transform="matrix(1,0,0,1,1013.75,302.5) translate(0 16.555555555555557)"/><use xlink:href="#D" transform="matrix(1,0,0,1,805,333.5) translate(5.148148148148147 16.555555555555557)"/><use xlink:href="#E" transform="matrix(1,0,0,1,849,333.5) translate(0 16.555555555555557)"/><use xlink:href="#F" transform="matrix(1,0,0,1,1013.75,333.5) translate(0 16.555555555555557)"/><use xlink:href="#D" transform="matrix(1,0,0,1,805,364.5) translate(5.148148148148147 16.555555555555557)"/><use xlink:href="#G" transform="matrix(1,0,0,1,849,364.5) translate(0 16.555555555555557)"/><use xlink:href="#F" transform="matrix(1,0,0,1,1013.75,364.5) translate(0 16.555555555555557)"/><use xlink:href="#H" transform="matrix(1,0,0,1,849,395.5) translate(0 16.555555555555557)"/><use xlink:href="#F" transform="matrix(1,0,0,1,1013.75,395.5) translate(0 16.555555555555557)"/><use xlink:href="#I" transform="matrix(1,0,0,1,849,426.5) translate(0 16.555555555555557)"/><use xlink:href="#F" transform="matrix(1,0,0,1,1013.75,426.5) translate(0 16.555555555555557)"/><use xlink:href="#J" transform="matrix(1,0,0,1,849,457.5) translate(0 16.555555555555557)"/><use xlink:href="#F" transform="matrix(1,0,0,1,1013.75,457.5) translate(0 16.555555555555557)"/><use xlink:href="#K" transform="matrix(1,0,0,1,849,488.5) translate(0 16.555555555555557)"/><use xlink:href="#F" transform="matrix(1,0,0,1,1013.75,488.5) translate(0 16.555555555555557)"/><use xlink:href="#L" transform="matrix(1,0,0,1,849,519.5) translate(0 16.555555555555557)"/><use xlink:href="#F" transform="matrix(1,0,0,1,1013.75,519.5) translate(0 16.555555555555557)"/><use xlink:href="#M" transform="matrix(1,0,0,1,849,550.5) translate(0 16.555555555555557)"/><use xlink:href="#N" transform="matrix(1,0,0,1,1013.75,550.5) translate(0 16.555555555555557)"/><path d="M1104.15 315.5h101.28V344h101.86" stroke="#000" fill="none"/><path fill="#fff"/><path d="M1104.65 325.5h-1v-20h1z"/><path fill="#fff"/><path d="M1104.15 316h-20v-1h20z"/><path d="M1326.48 354l-20-10 20-10z" fill="#fff"/><path d="M1326.7 334.46l-19.1 9.55 19.1 9.56-.45.9-20.9-10.45 20.9-10.44z"/><path fill="#fff"/><path d="M1326.48 344.5h-20v-1h20z"/><path d="M1104.15 315.5h101.28v60.6h101.86" stroke="#000" fill="none"/><path fill="#fff"/><path d="M1104.65 325.5h-1v-20h1z"/><path fill="#fff"/><path d="M1104.15 316h-20v-1h20z"/><path d="M1326.48 386.1l-20-10 20-10z" fill="#fff"/><path d="M1326.7 366.55l-19.1 9.55 19.1 9.55-.45.9-20.9-10.45 20.9-10.45z"/><path fill="#fff"/><path d="M1326.48 376.6h-20v-1h20z"/><path d="M779.5 315.5H678.23v76.62H576.36" stroke="#000" fill="none"/><path fill="#fff"/><path d="M780 325.5h-1v-20h1z"/><path fill="#fff"/><path d="M799.5 316h-20v-1h20z"/><path d="M557.17 382.12l20 10-20 10z" fill="#fff"/><path d="M578.3 392.12l-20.9 10.45-.45-.9 19.1-9.55-19.1-9.55.45-.9z"/><path fill="#fff"/><path d="M577.17 392.62h-20v-1h20z"/><path d="M779.5 315.5H678.23v108.7H576.36" stroke="#000" fill="none"/><path fill="#fff"/><path d="M780 325.5h-1v-20h1z"/><path fill="#fff"/><path d="M799.5 316h-20v-1h20z"/><path d="M557.17 414.2l20 10-20 10z" fill="#fff"/><path d="M578.3 424.2l-20.9 10.45-.45-.9 19.1-9.55-19.1-9.55.45-.9z"/><path fill="#fff"/><path d="M577.17 424.7h-20v-1h20z"/><path d="M1104.15 315.5h87.67v415.43c-2.76 0-5 2.24-5 5s2.24 5 5 5v91.24h88.27" stroke="#000" fill="none"/><path fill="#fff"/><path d="M1104.65 325.5h-1v-20h1z"/><path fill="#fff"/><path d="M1104.15 316h-20v-1h20z"/><path d="M1299.28 842.17l-20-10 20-10z" fill="#fff"/><path d="M1299.5 822.62l-19.1 9.55 19.1 9.56-.45.9-20.9-10.46 20.9-10.44z"/><path fill="#fff"/><path d="M1299.28 832.67h-20v-1h20z"/><path d="M779.5 315.5H621.87v71.62c-2.76 0-5 2.24-5 5 0 2.77 2.24 5 5 5v22.08c-2.76 0-5 2.24-5 5s2.24 5 5 5v301.82c-2.76 0-5 2.23-5 5 0 2.76 2.24 5 5 5v27.12h-158.2" stroke="#000" fill="none"/><path fill="#fff"/><path d="M780 325.5h-1v-20h1z"/><path fill="#fff"/><path d="M799.5 316h-20v-1h20z"/><path d="M444.47 758.14l20 10-20 10z" fill="#fff"/><path d="M465.6 768.14l-20.9 10.44-.45-.9 19.1-9.54-19.1-9.56.45-.9z"/><path fill="#fff"/><path d="M464.47 768.64h-20v-1h20z"/><defs><path fill="#333" d="M176-78C186 10 51 31 16-35c-5-9-9-19-11-32l52-8c4 21 12 37 35 38 23 0 32-16 32-40v-130H75v-41h101v170" id="O"/><path fill="#333" d="M110-194c64 0 96 36 96 99 0 64-35 99-97 99-61 0-95-36-95-99 0-62 34-99 96-99zm-1 164c35 0 45-28 45-65 0-40-10-65-43-65-34 0-45 26-45 65 0 36 10 65 43 65" id="P"/><path fill="#333" d="M135-194c52 0 70 43 70 98 0 56-19 99-73 100-30 1-46-15-58-35L72 0H24l1-261h50v104c11-23 29-37 60-37zM114-30c31 0 40-27 40-66 0-37-7-63-39-63s-41 28-41 65c0 36 8 64 40 64" id="Q"/><path fill="#333" d="M25 0v-261h50V0H25" id="R"/><path fill="#333" d="M123 10C108 53 80 86 19 72V37c35 8 53-11 59-39L3-190h52l48 148c12-52 28-100 44-148h51" id="S"/><g id="a"><use transform="matrix(0.0728395061728395,0,0,0.0728395061728395,0,0)" xlink:href="#O"/><use transform="matrix(0.0728395061728395,0,0,0.0728395061728395,14.5679012345679,0)" xlink:href="#P"/><use transform="matrix(0.0728395061728395,0,0,0.0728395061728395,30.51975308641975,0)" xlink:href="#Q"/><use transform="matrix(0.0728395061728395,0,0,0.0728395061728395,46.471604938271604,0)" xlink:href="#R"/><use transform="matrix(0.0728395061728395,0,0,0.0728395061728395,53.75555555555555,0)" xlink:href="#S"/></g><path fill="#333" d="M24 0v-248h195v40H76v63h132v40H76v65h150V0H24" id="T"/><path fill="#333" d="M240-174c0 40-23 61-54 70L253 0h-59l-57-94H76V0H24v-248c93 4 217-23 216 74zM76-134c48-2 112 12 112-38 0-48-66-32-112-35v73" id="U"/><path fill="#333" d="M24-248c120-7 223 5 221 122C244-46 201 0 124 0H24v-248zM76-40c74 7 117-18 117-86 0-67-45-88-117-82v168" id="V"/><g id="b"><use transform="matrix(0.0728395061728395,0,0,0.0728395061728395,0,0)" xlink:href="#T"/><use transform="matrix(0.0728395061728395,0,0,0.0728395061728395,17.48148148148148,0)" xlink:href="#U"/><use transform="matrix(0.0728395061728395,0,0,0.0728395061728395,36.34691358024691,0)" xlink:href="#V"/></g><path d="M85-194c31 0 48 13 60 33l-1-100h32l1 261h-30c-2-10 0-23-3-31C134-8 116 4 85 4 32 4 16-35 15-94c0-66 23-100 70-100zm9 24c-40 0-46 34-46 75 0 40 6 74 45 74 42 0 51-32 51-76 0-42-9-74-50-73" id="W"/><path d="M24-231v-30h32v30H24zM24 0v-190h32V0H24" id="X"/><path d="M114-163C36-179 61-72 57 0H25l-1-190h30c1 12-1 29 2 39 6-27 23-49 58-41v29" id="Y"/><path d="M100-194c63 0 86 42 84 106H49c0 40 14 67 53 68 26 1 43-12 49-29l28 8c-11 28-37 45-77 45C44 4 14-33 15-96c1-61 26-98 85-98zm52 81c6-60-76-77-97-28-3 7-6 17-6 28h103" id="Z"/><path d="M96-169c-40 0-48 33-48 73s9 75 48 75c24 0 41-14 43-38l32 2c-6 37-31 61-74 61-59 0-76-41-82-99-10-93 101-131 147-64 4 7 5 14 7 22l-32 3c-4-21-16-35-41-35" id="aa"/><path d="M59-47c-2 24 18 29 38 22v24C64 9 27 4 27-40v-127H5v-23h24l9-43h21v43h35v23H59v120" id="ab"/><path d="M-5 72V49h209v23H-5" id="ac"/><path d="M210-169c-67 3-38 105-44 169h-31v-121c0-29-5-50-35-48C34-165 62-65 56 0H25l-1-190h30c1 10-1 24 2 32 10-44 99-50 107 0 11-21 27-35 58-36 85-2 47 119 55 194h-31v-121c0-29-5-49-35-48" id="ad"/><path d="M135-143c-3-34-86-38-87 0 15 53 115 12 119 90S17 21 10-45l28-5c4 36 97 45 98 0-10-56-113-15-118-90-4-57 82-63 122-42 12 7 21 19 24 35" id="ae"/><path d="M141-36C126-15 110 5 73 4 37 3 15-17 15-53c-1-64 63-63 125-63 3-35-9-54-41-54-24 1-41 7-42 31l-33-3c5-37 33-52 76-52 45 0 72 20 72 64v82c-1 20 7 32 28 27v20c-31 9-61-2-59-35zM48-53c0 20 12 33 32 33 41-3 63-29 60-74-43 2-92-5-92 41" id="af"/><path d="M177-190C167-65 218 103 67 71c-23-6-38-20-44-43l32-5c15 47 100 32 89-28v-30C133-14 115 1 83 1 29 1 15-40 15-95c0-56 16-97 71-98 29-1 48 16 59 35 1-10 0-23 2-32h30zM94-22c36 0 50-32 50-73 0-42-14-75-50-75-39 0-46 34-46 75s6 73 46 73" id="ag"/><g id="c"><use transform="matrix(0.05,0,0,0.05,0,0)" xlink:href="#W"/><use transform="matrix(0.05,0,0,0.05,10,0)" xlink:href="#X"/><use transform="matrix(0.05,0,0,0.05,13.949999999999998,0)" xlink:href="#Y"/><use transform="matrix(0.05,0,0,0.05,19.9,0)" xlink:href="#Z"/><use transform="matrix(0.05,0,0,0.05,29.899999999999995,0)" xlink:href="#aa"/><use transform="matrix(0.05,0,0,0.05,38.9,0)" xlink:href="#ab"/><use transform="matrix(0.05,0,0,0.05,43.9,0)" xlink:href="#ac"/><use transform="matrix(0.05,0,0,0.05,53.900000000000006,0)" xlink:href="#ad"/><use transform="matrix(0.05,0,0,0.05,68.85,0)" xlink:href="#Z"/><use transform="matrix(0.05,0,0,0.05,78.85,0)" xlink:href="#ae"/><use transform="matrix(0.05,0,0,0.05,87.85,0)" xlink:href="#ae"/><use transform="matrix(0.05,0,0,0.05,96.85,0)" xlink:href="#af"/><use transform="matrix(0.05,0,0,0.05,106.84999999999998,0)" xlink:href="#ag"/><use transform="matrix(0.05,0,0,0.05,116.84999999999998,0)" xlink:href="#Z"/><use transform="matrix(0.05,0,0,0.05,126.84999999999998,0)" xlink:href="#ae"/></g><path d="M30-248c87 1 191-15 191 75 0 78-77 80-158 76V0H30v-248zm33 125c57 0 124 11 124-50 0-59-68-47-124-48v98" id="ah"/><path d="M194 0L95-120 63-95V0H30v-248h33v124l119-124h40L117-140 236 0h-42" id="ai"/><g id="d"><use transform="matrix(0.05,0,0,0.05,0,0)" xlink:href="#ah"/><use transform="matrix(0.05,0,0,0.05,12,0)" xlink:href="#ai"/></g><g id="e"><use transform="matrix(0.05,0,0,0.05,0,0)" xlink:href="#X"/><use transform="matrix(0.05,0,0,0.05,3.95,0)" xlink:href="#W"/></g><path d="M117-194c89-4 53 116 60 194h-32v-121c0-31-8-49-39-48C34-167 62-67 57 0H25l-1-190h30c1 10-1 24 2 32 11-22 29-35 61-36" id="aj"/><g id="f"><use transform="matrix(0.05,0,0,0.05,0,0)" xlink:href="#X"/><use transform="matrix(0.05,0,0,0.05,3.95,0)" xlink:href="#aj"/><use transform="matrix(0.05,0,0,0.05,13.949999999999998,0)" xlink:href="#ab"/><use transform="matrix(0.05,0,0,0.05,18.95,0)" xlink:href="#Z"/><use transform="matrix(0.05,0,0,0.05,28.950000000000003,0)" xlink:href="#ag"/><use transform="matrix(0.05,0,0,0.05,38.95,0)" xlink:href="#Z"/><use transform="matrix(0.05,0,0,0.05,48.95,0)" xlink:href="#Y"/></g><path d="M141 0L90-78 38 0H4l68-98-65-92h35l48 74 47-74h35l-64 92 68 98h-35" id="ak"/><g id="g"><use transform="matrix(0.05,0,0,0.05,0,0)" xlink:href="#ab"/><use transform="matrix(0.05,0,0,0.05,5,0)" xlink:href="#Z"/><use transform="matrix(0.05,0,0,0.05,15,0)" xlink:href="#ak"/><use transform="matrix(0.05,0,0,0.05,24,0)" xlink:href="#ab"/></g><path d="M106-169C34-169 62-67 57 0H25v-261h32l-1 103c12-21 28-36 61-36 89 0 53 116 60 194h-32v-121c2-32-8-49-39-48" id="al"/><g id="h"><use transform="matrix(0.05,0,0,0.05,0,0)" xlink:href="#aa"/><use transform="matrix(0.05,0,0,0.05,9,0)" xlink:href="#al"/><use transform="matrix(0.05,0,0,0.05,19,0)" xlink:href="#af"/><use transform="matrix(0.05,0,0,0.05,29,0)" xlink:href="#Y"/><use transform="matrix(0.05,0,0,0.05,34.95,0)" xlink:href="#af"/><use transform="matrix(0.05,0,0,0.05,44.95,0)" xlink:href="#aa"/><use transform="matrix(0.05,0,0,0.05,53.95,0)" xlink:href="#ab"/><use transform="matrix(0.05,0,0,0.05,58.95,0)" xlink:href="#Z"/><use transform="matrix(0.05,0,0,0.05,68.95,0)" xlink:href="#Y"/></g><path d="M108 0H70L1-190h34L89-25l56-165h34" id="am"/><path d="M179-190L93 31C79 59 56 82 12 73V49c39 6 53-20 64-50L1-190h34L92-34l54-156h33" id="an"/><path d="M87 75C49 33 22-17 22-94c0-76 28-126 65-167h31c-38 41-64 92-64 168S80 34 118 75H87" id="ao"/><path d="M27 0v-27h64v-190l-56 39v-29l58-41h29v221h61V0H27" id="ap"/><path d="M155-56V0h-30v-56H8v-25l114-167h33v167h35v25h-35zm-30-156c-27 46-58 90-88 131h88v-131" id="aq"/><path d="M101-251c68 0 85 55 85 127S166 4 100 4C33 4 14-52 14-124c0-73 17-127 87-127zm-1 229c47 0 54-49 54-102s-4-102-53-102c-51 0-55 48-55 102 0 53 5 102 54 102" id="ar"/><path d="M33-261c38 41 65 92 65 168S71 34 33 75H2C39 34 66-17 66-93S39-220 2-261h31" id="as"/><g id="i"><use transform="matrix(0.05,0,0,0.05,0,0)" xlink:href="#am"/><use transform="matrix(0.05,0,0,0.05,9,0)" xlink:href="#af"/><use transform="matrix(0.05,0,0,0.05,19,0)" xlink:href="#Y"/><use transform="matrix(0.05,0,0,0.05,24.95,0)" xlink:href="#an"/><use transform="matrix(0.05,0,0,0.05,33.95,0)" xlink:href="#X"/><use transform="matrix(0.05,0,0,0.05,37.900000000000006,0)" xlink:href="#aj"/><use transform="matrix(0.05,0,0,0.05,47.900000000000006,0)" xlink:href="#ag"/><use transform="matrix(0.05,0,0,0.05,57.900000000000006,0)" xlink:href="#ao"/><use transform="matrix(0.05,0,0,0.05,63.85,0)" xlink:href="#ap"/><use transform="matrix(0.05,0,0,0.05,73.85000000000001,0)" xlink:href="#aq"/><use transform="matrix(0.05,0,0,0.05,83.85000000000001,0)" xlink:href="#ar"/><use transform="matrix(0.05,0,0,0.05,93.85000000000001,0)" xlink:href="#as"/></g><path d="M115-194c55 1 70 41 70 98S169 2 115 4C84 4 66-9 55-30l1 105H24l-1-265h31l2 30c10-21 28-34 59-34zm-8 174c40 0 45-34 45-75s-6-73-45-74c-42 0-51 32-51 76 0 43 10 73 51 73" id="at"/><g id="j"><use transform="matrix(0.05,0,0,0.05,0,0)" xlink:href="#ab"/><use transform="matrix(0.05,0,0,0.05,5,0)" xlink:href="#X"/><use transform="matrix(0.05,0,0,0.05,8.95,0)" xlink:href="#ad"/><use transform="matrix(0.05,0,0,0.05,23.9,0)" xlink:href="#Z"/><use transform="matrix(0.05,0,0,0.05,33.9,0)" xlink:href="#ae"/><use transform="matrix(0.05,0,0,0.05,42.9,0)" xlink:href="#ab"/><use transform="matrix(0.05,0,0,0.05,47.9,0)" xlink:href="#af"/><use transform="matrix(0.05,0,0,0.05,57.900000000000006,0)" xlink:href="#ad"/><use transform="matrix(0.05,0,0,0.05,72.85,0)" xlink:href="#at"/></g><g id="k"><use transform="matrix(0.05,0,0,0.05,0,0)" xlink:href="#ab"/><use transform="matrix(0.05,0,0,0.05,5,0)" xlink:href="#X"/><use transform="matrix(0.05,0,0,0.05,8.95,0)" xlink:href="#ad"/><use transform="matrix(0.05,0,0,0.05,23.9,0)" xlink:href="#Z"/><use transform="matrix(0.05,0,0,0.05,33.9,0)" xlink:href="#ae"/><use transform="matrix(0.05,0,0,0.05,42.9,0)" xlink:href="#ab"/><use transform="matrix(0.05,0,0,0.05,47.9,0)" xlink:href="#af"/><use transform="matrix(0.05,0,0,0.05,57.900000000000006,0)" xlink:href="#ad"/><use transform="matrix(0.05,0,0,0.05,72.85,0)" xlink:href="#at"/></g><path d="M206 0h-36l-40-164L89 0H53L-1-190h32L70-26l43-164h34l41 164 42-164h31" id="au"/><path d="M100-194c62-1 85 37 85 99 1 63-27 99-86 99S16-35 15-95c0-66 28-99 85-99zM99-20c44 1 53-31 53-75 0-43-8-75-51-75s-53 32-53 75 10 74 51 75" id="av"/><path d="M84 4C-5 8 30-112 23-190h32v120c0 31 7 50 39 49 72-2 45-101 50-169h31l1 190h-30c-1-10 1-25-2-33-11 22-28 36-60 37" id="aw"/><g id="l"><use transform="matrix(0.05,0,0,0.05,0,0)" xlink:href="#au"/><use transform="matrix(0.05,0,0,0.05,12.950000000000001,0)" xlink:href="#X"/><use transform="matrix(0.05,0,0,0.05,16.900000000000002,0)" xlink:href="#ab"/><use transform="matrix(0.05,0,0,0.05,21.900000000000002,0)" xlink:href="#al"/><use transform="matrix(0.05,0,0,0.05,31.900000000000002,0)" xlink:href="#av"/><use transform="matrix(0.05,0,0,0.05,41.900000000000006,0)" xlink:href="#aw"/><use transform="matrix(0.05,0,0,0.05,51.900000000000006,0)" xlink:href="#ab"/></g><g id="m"><use transform="matrix(0.05,0,0,0.05,0,0)" xlink:href="#ab"/><use transform="matrix(0.05,0,0,0.05,5,0)" xlink:href="#X"/><use transform="matrix(0.05,0,0,0.05,8.95,0)" xlink:href="#ad"/><use transform="matrix(0.05,0,0,0.05,23.9,0)" xlink:href="#Z"/></g><path d="M9 0v-24l116-142H16v-24h144v24L44-24h123V0H9" id="ax"/><g id="n"><use transform="matrix(0.05,0,0,0.05,0,0)" xlink:href="#ax"/><use transform="matrix(0.05,0,0,0.05,9,0)" xlink:href="#av"/><use transform="matrix(0.05,0,0,0.05,19,0)" xlink:href="#aj"/><use transform="matrix(0.05,0,0,0.05,29,0)" xlink:href="#Z"/></g><path d="M63-220v92h138v28H63V0H30v-248h175v28H63" id="ay"/><g id="o"><use transform="matrix(0.05,0,0,0.05,0,0)" xlink:href="#ay"/><use transform="matrix(0.05,0,0,0.05,10.950000000000001,0)" xlink:href="#ai"/></g><path d="M101-234c-31-9-42 10-38 44h38v23H63V0H32v-167H5v-23h27c-7-52 17-82 69-68v24" id="az"/><g id="p"><use transform="matrix(0.05,0,0,0.05,0,0)" xlink:href="#aw"/><use transform="matrix(0.05,0,0,0.05,10,0)" xlink:href="#ae"/><use transform="matrix(0.05,0,0,0.05,19,0)" xlink:href="#Z"/><use transform="matrix(0.05,0,0,0.05,29,0)" xlink:href="#Y"/><use transform="matrix(0.05,0,0,0.05,34.95,0)" xlink:href="#ac"/><use transform="matrix(0.05,0,0,0.05,44.95,0)" xlink:href="#az"/><use transform="matrix(0.05,0,0,0.05,49.95,0)" xlink:href="#Y"/><use transform="matrix(0.05,0,0,0.05,55.900000000000006,0)" xlink:href="#av"/><use transform="matrix(0.05,0,0,0.05,65.9,0)" xlink:href="#ad"/><use transform="matrix(0.05,0,0,0.05,80.85000000000001,0)" xlink:href="#ac"/><use transform="matrix(0.05,0,0,0.05,90.85000000000001,0)" xlink:href="#X"/><use transform="matrix(0.05,0,0,0.05,94.80000000000001,0)" xlink:href="#W"/></g><g id="q"><use transform="matrix(0.05,0,0,0.05,0,0)" xlink:href="#aw"/><use transform="matrix(0.05,0,0,0.05,10,0)" xlink:href="#ae"/><use transform="matrix(0.05,0,0,0.05,19,0)" xlink:href="#Z"/><use transform="matrix(0.05,0,0,0.05,29,0)" xlink:href="#Y"/><use transform="matrix(0.05,0,0,0.05,34.95,0)" xlink:href="#ac"/><use transform="matrix(0.05,0,0,0.05,44.95,0)" xlink:href="#ab"/><use transform="matrix(0.05,0,0,0.05,49.95,0)" xlink:href="#av"/><use transform="matrix(0.05,0,0,0.05,59.95,0)" xlink:href="#ac"/><use transform="matrix(0.05,0,0,0.05,69.95,0)" xlink:href="#X"/><use transform="matrix(0.05,0,0,0.05,73.9,0)" xlink:href="#W"/></g><path d="M24 0v-261h32V0H24" id="aA"/><g id="r"><use transform="matrix(0.05,0,0,0.05,0,0)" xlink:href="#az"/><use transform="matrix(0.05,0,0,0.05,5,0)" xlink:href="#av"/><use transform="matrix(0.05,0,0,0.05,15,0)" xlink:href="#aA"/><use transform="matrix(0.05,0,0,0.05,18.95,0)" xlink:href="#aA"/><use transform="matrix(0.05,0,0,0.05,22.9,0)" xlink:href="#av"/><use transform="matrix(0.05,0,0,0.05,32.9,0)" xlink:href="#au"/><use transform="matrix(0.05,0,0,0.05,45.85,0)" xlink:href="#ae"/></g><path d="M68-38c1 34 0 65-14 84H32c9-13 17-26 17-46H33v-38h35" id="aB"/><g id="s"><use transform="matrix(0.05,0,0,0.05,0,0)" xlink:href="#ah"/><use transform="matrix(0.05,0,0,0.05,12,0)" xlink:href="#ai"/><use transform="matrix(0.05,0,0,0.05,24,0)" xlink:href="#aB"/><use transform="matrix(0.05,0,0,0.05,29,0)" xlink:href="#ay"/><use transform="matrix(0.05,0,0,0.05,39.95,0)" xlink:href="#ai"/></g><path d="M115-194c53 0 69 39 70 98 0 66-23 100-70 100C84 3 66-7 56-30L54 0H23l1-261h32v101c10-23 28-34 59-34zm-8 174c40 0 45-34 45-75 0-40-5-75-45-74-42 0-51 32-51 76 0 43 10 73 51 73" id="aC"/><g id="t"><use transform="matrix(0.05,0,0,0.05,0,0)" xlink:href="#aw"/><use transform="matrix(0.05,0,0,0.05,10,0)" xlink:href="#ae"/><use transform="matrix(0.05,0,0,0.05,19,0)" xlink:href="#Z"/><use transform="matrix(0.05,0,0,0.05,29,0)" xlink:href="#Y"/><use transform="matrix(0.05,0,0,0.05,34.95,0)" xlink:href="#ac"/><use transform="matrix(0.05,0,0,0.05,44.95,0)" xlink:href="#aC"/><use transform="matrix(0.05,0,0,0.05,54.95,0)" xlink:href="#Z"/><use transform="matrix(0.05,0,0,0.05,64.95,0)" xlink:href="#X"/><use transform="matrix(0.05,0,0,0.05,68.9,0)" xlink:href="#aj"/><use transform="matrix(0.05,0,0,0.05,78.9,0)" xlink:href="#ag"/><use transform="matrix(0.05,0,0,0.05,88.9,0)" xlink:href="#ac"/><use transform="matrix(0.05,0,0,0.05,98.9,0)" xlink:href="#az"/><use transform="matrix(0.05,0,0,0.05,103.9,0)" xlink:href="#av"/><use transform="matrix(0.05,0,0,0.05,113.9,0)" xlink:href="#aA"/><use transform="matrix(0.05,0,0,0.05,117.85000000000001,0)" xlink:href="#aA"/><use transform="matrix(0.05,0,0,0.05,121.80000000000001,0)" xlink:href="#av"/><use transform="matrix(0.05,0,0,0.05,131.8,0)" xlink:href="#au"/><use transform="matrix(0.05,0,0,0.05,144.75,0)" xlink:href="#Z"/><use transform="matrix(0.05,0,0,0.05,154.75,0)" xlink:href="#W"/><use transform="matrix(0.05,0,0,0.05,164.75,0)" xlink:href="#ac"/><use transform="matrix(0.05,0,0,0.05,174.75,0)" xlink:href="#X"/><use transform="matrix(0.05,0,0,0.05,178.7,0)" xlink:href="#W"/></g><g id="u"><use transform="matrix(0.05,0,0,0.05,0,0)" xlink:href="#aw"/><use transform="matrix(0.05,0,0,0.05,10,0)" xlink:href="#ae"/><use transform="matrix(0.05,0,0,0.05,19,0)" xlink:href="#Z"/><use transform="matrix(0.05,0,0,0.05,29,0)" xlink:href="#Y"/><use transform="matrix(0.05,0,0,0.05,34.95,0)" xlink:href="#ac"/><use transform="matrix(0.05,0,0,0.05,44.95,0)" xlink:href="#az"/><use transform="matrix(0.05,0,0,0.05,49.95,0)" xlink:href="#av"/><use transform="matrix(0.05,0,0,0.05,59.95,0)" xlink:href="#aA"/><use transform="matrix(0.05,0,0,0.05,63.900000000000006,0)" xlink:href="#aA"/><use transform="matrix(0.05,0,0,0.05,67.85000000000001,0)" xlink:href="#av"/><use transform="matrix(0.05,0,0,0.05,77.85000000000001,0)" xlink:href="#au"/><use transform="matrix(0.05,0,0,0.05,90.80000000000001,0)" xlink:href="#X"/><use transform="matrix(0.05,0,0,0.05,94.75000000000001,0)" xlink:href="#aj"/><use transform="matrix(0.05,0,0,0.05,104.75,0)" xlink:href="#ag"/><use transform="matrix(0.05,0,0,0.05,114.75,0)" xlink:href="#ac"/><use transform="matrix(0.05,0,0,0.05,124.75,0)" xlink:href="#X"/><use transform="matrix(0.05,0,0,0.05,128.70000000000002,0)" xlink:href="#W"/></g><path d="M143 0L79-87 56-68V0H24v-261h32v163l83-92h37l-77 82L181 0h-38" id="aD"/><g id="v"><use transform="matrix(0.05,0,0,0.05,0,0)" xlink:href="#aA"/><use transform="matrix(0.05,0,0,0.05,3.95,0)" xlink:href="#X"/><use transform="matrix(0.05,0,0,0.05,7.9,0)" xlink:href="#aD"/><use transform="matrix(0.05,0,0,0.05,16.9,0)" xlink:href="#Z"/><use transform="matrix(0.05,0,0,0.05,26.899999999999995,0)" xlink:href="#W"/><use transform="matrix(0.05,0,0,0.05,36.9,0)" xlink:href="#ac"/><use transform="matrix(0.05,0,0,0.05,46.9,0)" xlink:href="#ad"/><use transform="matrix(0.05,0,0,0.05,61.85,0)" xlink:href="#Z"/><use transform="matrix(0.05,0,0,0.05,71.85,0)" xlink:href="#ae"/><use transform="matrix(0.05,0,0,0.05,80.85,0)" xlink:href="#ae"/><use transform="matrix(0.05,0,0,0.05,89.85,0)" xlink:href="#af"/><use transform="matrix(0.05,0,0,0.05,99.85,0)" xlink:href="#ag"/><use transform="matrix(0.05,0,0,0.05,109.84999999999998,0)" xlink:href="#Z"/><use transform="matrix(0.05,0,0,0.05,119.84999999999998,0)" xlink:href="#ae"/></g><g id="w"><use transform="matrix(0.05,0,0,0.05,0,0)" xlink:href="#ad"/><use transform="matrix(0.05,0,0,0.05,14.950000000000001,0)" xlink:href="#Z"/><use transform="matrix(0.05,0,0,0.05,24.950000000000003,0)" xlink:href="#ae"/><use transform="matrix(0.05,0,0,0.05,33.95,0)" xlink:href="#ae"/><use transform="matrix(0.05,0,0,0.05,42.95,0)" xlink:href="#af"/><use transform="matrix(0.05,0,0,0.05,52.95,0)" xlink:href="#ag"/><use transform="matrix(0.05,0,0,0.05,62.95,0)" xlink:href="#Z"/><use transform="matrix(0.05,0,0,0.05,72.95,0)" xlink:href="#ac"/><use transform="matrix(0.05,0,0,0.05,82.95,0)" xlink:href="#X"/><use transform="matrix(0.05,0,0,0.05,86.9,0)" xlink:href="#W"/></g><g id="x"><use transform="matrix(0.05,0,0,0.05,0,0)" xlink:href="#aw"/><use transform="matrix(0.05,0,0,0.05,10,0)" xlink:href="#ae"/><use transform="matrix(0.05,0,0,0.05,19,0)" xlink:href="#Z"/><use transform="matrix(0.05,0,0,0.05,29,0)" xlink:href="#Y"/><use transform="matrix(0.05,0,0,0.05,34.95,0)" xlink:href="#ac"/><use transform="matrix(0.05,0,0,0.05,44.95,0)" xlink:href="#X"/><use transform="matrix(0.05,0,0,0.05,48.900000000000006,0)" xlink:href="#W"/></g><g id="y"><use transform="matrix(0.05,0,0,0.05,0,0)" xlink:href="#ad"/><use transform="matrix(0.05,0,0,0.05,14.950000000000001,0)" xlink:href="#Z"/><use transform="matrix(0.05,0,0,0.05,24.950000000000003,0)" xlink:href="#ae"/><use transform="matrix(0.05,0,0,0.05,33.95,0)" xlink:href="#ae"/><use transform="matrix(0.05,0,0,0.05,42.95,0)" xlink:href="#af"/><use transform="matrix(0.05,0,0,0.05,52.95,0)" xlink:href="#ag"/><use transform="matrix(0.05,0,0,0.05,62.95,0)" xlink:href="#Z"/><use transform="matrix(0.05,0,0,0.05,72.95,0)" xlink:href="#ae"/></g><g id="z"><use transform="matrix(0.04938271604938272,0,0,0.04938271604938272,0,0)" xlink:href="#aw"/><use transform="matrix(0.04938271604938272,0,0,0.04938271604938272,9.876543209876544,0)" xlink:href="#ae"/><use transform="matrix(0.04938271604938272,0,0,0.04938271604938272,18.765432098765434,0)" xlink:href="#Z"/><use transform="matrix(0.04938271604938272,0,0,0.04938271604938272,28.641975308641978,0)" xlink:href="#Y"/><use transform="matrix(0.04938271604938272,0,0,0.04938271604938272,34.51851851851852,0)" xlink:href="#ae"/></g><g id="A"><use transform="matrix(0.04938271604938272,0,0,0.04938271604938272,0,0)" xlink:href="#ah"/><use transform="matrix(0.04938271604938272,0,0,0.04938271604938272,11.851851851851853,0)" xlink:href="#ai"/></g><g id="B"><use transform="matrix(0.04938271604938272,0,0,0.04938271604938272,0,0)" xlink:href="#X"/><use transform="matrix(0.04938271604938272,0,0,0.04938271604938272,3.901234567901235,0)" xlink:href="#W"/></g><g id="C"><use transform="matrix(0.04938271604938272,0,0,0.04938271604938272,0,0)" xlink:href="#X"/><use transform="matrix(0.04938271604938272,0,0,0.04938271604938272,3.901234567901235,0)" xlink:href="#aj"/><use transform="matrix(0.04938271604938272,0,0,0.04938271604938272,13.777777777777779,0)" xlink:href="#ab"/><use transform="matrix(0.04938271604938272,0,0,0.04938271604938272,18.71604938271605,0)" xlink:href="#Z"/><use transform="matrix(0.04938271604938272,0,0,0.04938271604938272,28.592592592592595,0)" xlink:href="#ag"/><use transform="matrix(0.04938271604938272,0,0,0.04938271604938272,38.46913580246914,0)" xlink:href="#Z"/><use transform="matrix(0.04938271604938272,0,0,0.04938271604938272,48.345679012345684,0)" xlink:href="#Y"/></g><path d="M205 0l-28-72H64L36 0H1l101-248h38L239 0h-34zm-38-99l-47-123c-12 45-31 82-46 123h93" id="aE"/><g id="D"><use transform="matrix(0.04938271604938272,0,0,0.04938271604938272,0,0)" xlink:href="#aE"/><use transform="matrix(0.04938271604938272,0,0,0.04938271604938272,11.851851851851853,0)" xlink:href="#ai"/></g><g id="E"><use transform="matrix(0.04938271604938272,0,0,0.04938271604938272,0,0)" xlink:href="#Z"/><use transform="matrix(0.04938271604938272,0,0,0.04938271604938272,9.876543209876544,0)" xlink:href="#ad"/><use transform="matrix(0.04938271604938272,0,0,0.04938271604938272,24.641975308641978,0)" xlink:href="#af"/><use transform="matrix(0.04938271604938272,0,0,0.04938271604938272,34.51851851851852,0)" xlink:href="#X"/><use transform="matrix(0.04938271604938272,0,0,0.04938271604938272,38.41975308641975,0)" xlink:href="#aA"/></g><g id="F"><use transform="matrix(0.04938271604938272,0,0,0.04938271604938272,0,0)" xlink:href="#ab"/><use transform="matrix(0.04938271604938272,0,0,0.04938271604938272,4.938271604938272,0)" xlink:href="#Z"/><use transform="matrix(0.04938271604938272,0,0,0.04938271604938272,14.814814814814817,0)" xlink:href="#ak"/><use transform="matrix(0.04938271604938272,0,0,0.04938271604938272,23.703703703703706,0)" xlink:href="#ab"/></g><g id="G"><use transform="matrix(0.04938271604938272,0,0,0.04938271604938272,0,0)" xlink:href="#aw"/><use transform="matrix(0.04938271604938272,0,0,0.04938271604938272,9.876543209876544,0)" xlink:href="#ae"/><use transform="matrix(0.04938271604938272,0,0,0.04938271604938272,18.765432098765434,0)" xlink:href="#Z"/><use transform="matrix(0.04938271604938272,0,0,0.04938271604938272,28.641975308641978,0)" xlink:href="#Y"/><use transform="matrix(0.04938271604938272,0,0,0.04938271604938272,34.51851851851852,0)" xlink:href="#aj"/><use transform="matrix(0.04938271604938272,0,0,0.04938271604938272,44.39506172839506,0)" xlink:href="#af"/><use transform="matrix(0.04938271604938272,0,0,0.04938271604938272,54.27160493827161,0)" xlink:href="#ad"/><use transform="matrix(0.04938271604938272,0,0,0.04938271604938272,69.03703703703704,0)" xlink:href="#Z"/></g><g id="H"><use transform="matrix(0.04938271604938272,0,0,0.04938271604938272,0,0)" xlink:href="#X"/><use transform="matrix(0.04938271604938272,0,0,0.04938271604938272,3.901234567901235,0)" xlink:href="#ad"/><use transform="matrix(0.04938271604938272,0,0,0.04938271604938272,18.666666666666668,0)" xlink:href="#af"/><use transform="matrix(0.04938271604938272,0,0,0.04938271604938272,28.543209876543212,0)" xlink:href="#ag"/><use transform="matrix(0.04938271604938272,0,0,0.04938271604938272,38.41975308641976,0)" xlink:href="#Z"/><use transform="matrix(0.04938271604938272,0,0,0.04938271604938272,48.296296296296305,0)" xlink:href="#ac"/><use transform="matrix(0.04938271604938272,0,0,0.04938271604938272,58.17283950617284,0)" xlink:href="#aw"/><use transform="matrix(0.04938271604938272,0,0,0.04938271604938272,68.0493827160494,0)" xlink:href="#Y"/><use transform="matrix(0.04938271604938272,0,0,0.04938271604938272,73.92592592592594,0)" xlink:href="#aA"/></g><g id="I"><use transform="matrix(0.04938271604938272,0,0,0.04938271604938272,0,0)" xlink:href="#al"/><use transform="matrix(0.04938271604938272,0,0,0.04938271604938272,9.876543209876544,0)" xlink:href="#Z"/><use transform="matrix(0.04938271604938272,0,0,0.04938271604938272,19.75308641975309,0)" xlink:href="#af"/><use transform="matrix(0.04938271604938272,0,0,0.04938271604938272,29.629629629629633,0)" xlink:href="#W"/><use transform="matrix(0.04938271604938272,0,0,0.04938271604938272,39.50617283950618,0)" xlink:href="#Z"/><use transform="matrix(0.04938271604938272,0,0,0.04938271604938272,49.38271604938272,0)" xlink:href="#Y"/><use transform="matrix(0.04938271604938272,0,0,0.04938271604938272,55.25925925925927,0)" xlink:href="#ac"/><use transform="matrix(0.04938271604938272,0,0,0.04938271604938272,65.13580246913581,0)" xlink:href="#X"/><use transform="matrix(0.04938271604938272,0,0,0.04938271604938272,69.03703703703705,0)" xlink:href="#ad"/><use transform="matrix(0.04938271604938272,0,0,0.04938271604938272,83.80246913580248,0)" xlink:href="#af"/><use transform="matrix(0.04938271604938272,0,0,0.04938271604938272,93.67901234567903,0)" xlink:href="#ag"/><use transform="matrix(0.04938271604938272,0,0,0.04938271604938272,103.55555555555557,0)" xlink:href="#Z"/><use transform="matrix(0.04938271604938272,0,0,0.04938271604938272,113.4320987654321,0)" xlink:href="#ac"/><use transform="matrix(0.04938271604938272,0,0,0.04938271604938272,123.30864197530865,0)" xlink:href="#aw"/><use transform="matrix(0.04938271604938272,0,0,0.04938271604938272,133.18518518518522,0)" xlink:href="#Y"/><use transform="matrix(0.04938271604938272,0,0,0.04938271604938272,139.06172839506175,0)" xlink:href="#aA"/></g><g id="J"><use transform="matrix(0.04938271604938272,0,0,0.04938271604938272,0,0)" xlink:href="#aC"/><use transform="matrix(0.04938271604938272,0,0,0.04938271604938272,9.876543209876544,0)" xlink:href="#X"/><use transform="matrix(0.04938271604938272,0,0,0.04938271604938272,13.777777777777779,0)" xlink:href="#av"/></g><g id="K"><use transform="matrix(0.04938271604938272,0,0,0.04938271604938272,0,0)" xlink:href="#aA"/><use transform="matrix(0.04938271604938272,0,0,0.04938271604938272,3.901234567901235,0)" xlink:href="#av"/><use transform="matrix(0.04938271604938272,0,0,0.04938271604938272,13.777777777777779,0)" xlink:href="#aa"/><use transform="matrix(0.04938271604938272,0,0,0.04938271604938272,22.666666666666668,0)" xlink:href="#af"/><use transform="matrix(0.04938271604938272,0,0,0.04938271604938272,32.543209876543216,0)" xlink:href="#ab"/><use transform="matrix(0.04938271604938272,0,0,0.04938271604938272,37.48148148148149,0)" xlink:href="#X"/><use transform="matrix(0.04938271604938272,0,0,0.04938271604938272,41.38271604938272,0)" xlink:href="#av"/><use transform="matrix(0.04938271604938272,0,0,0.04938271604938272,51.25925925925927,0)" xlink:href="#aj"/></g><g id="L"><use transform="matrix(0.04938271604938272,0,0,0.04938271604938272,0,0)" xlink:href="#at"/><use transform="matrix(0.04938271604938272,0,0,0.04938271604938272,9.876543209876544,0)" xlink:href="#af"/><use transform="matrix(0.04938271604938272,0,0,0.04938271604938272,19.75308641975309,0)" xlink:href="#ae"/><use transform="matrix(0.04938271604938272,0,0,0.04938271604938272,28.641975308641978,0)" xlink:href="#ae"/><use transform="matrix(0.04938271604938272,0,0,0.04938271604938272,37.53086419753087,0)" xlink:href="#au"/><use transform="matrix(0.04938271604938272,0,0,0.04938271604938272,50.320987654320994,0)" xlink:href="#av"/><use transform="matrix(0.04938271604938272,0,0,0.04938271604938272,60.19753086419754,0)" xlink:href="#Y"/><use transform="matrix(0.04938271604938272,0,0,0.04938271604938272,66.07407407407408,0)" xlink:href="#W"/></g><g id="M"><use transform="matrix(0.04938271604938272,0,0,0.04938271604938272,0,0)" xlink:href="#at"/><use transform="matrix(0.04938271604938272,0,0,0.04938271604938272,9.876543209876544,0)" xlink:href="#Y"/><use transform="matrix(0.04938271604938272,0,0,0.04938271604938272,15.753086419753087,0)" xlink:href="#X"/><use transform="matrix(0.04938271604938272,0,0,0.04938271604938272,19.654320987654323,0)" xlink:href="#am"/><use transform="matrix(0.04938271604938272,0,0,0.04938271604938272,28.543209876543212,0)" xlink:href="#af"/><use transform="matrix(0.04938271604938272,0,0,0.04938271604938272,38.41975308641976,0)" xlink:href="#ab"/><use transform="matrix(0.04938271604938272,0,0,0.04938271604938272,43.35802469135803,0)" xlink:href="#Z"/></g><g id="N"><use transform="matrix(0.04938271604938272,0,0,0.04938271604938272,0,0)" xlink:href="#aC"/><use transform="matrix(0.04938271604938272,0,0,0.04938271604938272,9.876543209876544,0)" xlink:href="#av"/><use transform="matrix(0.04938271604938272,0,0,0.04938271604938272,19.75308641975309,0)" xlink:href="#av"/><use transform="matrix(0.04938271604938272,0,0,0.04938271604938272,29.629629629629633,0)" xlink:href="#aA"/><use transform="matrix(0.04938271604938272,0,0,0.04938271604938272,33.53086419753087,0)" xlink:href="#Z"/><use transform="matrix(0.04938271604938272,0,0,0.04938271604938272,43.40740740740741,0)" xlink:href="#af"/><use transform="matrix(0.04938271604938272,0,0,0.04938271604938272,53.283950617283956,0)" xlink:href="#aj"/></g></defs></g></svg>